<svg xmlns="http://www.w3.org/2000/svg" viewBox="0 0 256 549"><path d="M175.622 61.108C152.612 33.807 132.797 6.078 128.749.32a1.03 1.03 0 00-1.492 0c-4.048 5.759-23.863 33.487-46.873 60.788-197.507 251.896 31.108 421.89 31.108 421.89l1.917 1.28c1.704 26.234 5.966 63.988 5.966 63.988h17.045s4.26-37.54 5.965-63.987l1.918-1.494c.213 0 228.828-169.78 31.319-421.677" fill="#00ED64"/><path d="M128.075 481.404s-53.563-37.965-64.376-82.88c0 0-2.131-5.112 0-8.737 2.13-4.048 3.196-3.196 3.196-3.196s38.178 49.303 59.075 73.166v22.072l2.105-.425" fill="#55B24A"/><path d="M128.075 481.404s53.563-37.965 64.376-82.88c0 0 2.131-5.112 0-8.737-2.13-4.048-3.196-3.196-3.196-3.196s-38.178 49.303-59.075 73.166v22.072l-2.105-.425" fill="#12924F"/></svg>