<svg xmlns="http://www.w3.org/2000/svg" viewBox="0 0 256 256"><path d="M128 0C57.308 0 0 57.308 0 128s57.308 128 128 128 128-57.308 128-128S198.692 0 128 0z" fill="#CD6799"/><path d="M200.212 130.64c-7.654.006-14.298 1.755-19.852 4.409a40.903 40.903 0 00-3.15-6.334c-1.858-3.108-4.593-6.66-4.032-8.874.561-2.214 3.695-8.133.561-13.45-3.807-6.47-15.063-3.014-19.3-1.312-2.666 1.068-7.764 3.4-10.49 5.05-.78-1.288-1.582-2.438-2.14-3.158-5.55-7.157-12.563-11.522-14.11-8.927-.949 1.593 1.465 6.326 4.01 10.966a92.256 92.256 0 00-3.823 10.45l-4.1 12.236c-1.468-2.726-2.726-5.26-2.768-7.218-.077-3.546 4.482-8.86 2.468-9.853-2.013-.993-8.81 2.468-11.276 7.6-1.556 3.241-1.821 8.333-1.06 13.307-3.28 9.483-10.338 24.12-14.98 32.833-2.372 4.452-4.34 7.63-5.937 9.883l-.24.383c-1.69 2.533-1.798 2.608-1.957 3.483-.245 1.349.624 2.93 1.744 3.66 3.193 2.086 6.476.83 8.628-.624 2.717-1.837 5.218-4.664 7.576-8.998 2.87-5.278 5.616-12.63 7.644-18.094.6-.15 1.2-.3 1.8-.45 4.39-.97 8.955-1.467 13.48-1.77-1.482 2.593-2.357 5.716-2.76 9.74-.482 4.818.55 10.41 2.37 12.783 1.265 1.647 3.55 1.64 4.85 1.005 1.14-.558 2.63-1.9 3.61-3.52 1.23-2.04 2.38-4.55 2.83-8.14.55-4.42.18-8.42-1.17-13.63l-.16-.57c.35-.56.7-1.12 1.04-1.7 3.56-5.88 6.33-12.35 7.78-17.63 2.4 11.56 7.73 18.7 13.36 22.89-1.37 2.86-2.2 5.45-2.46 7.6-.52 4.29-.08 6.57.76 8.75.58 1.51 2 3.2 3.64 2.88 1.93-.38 3.43-1.7 4.35-4.16.72-1.93 1.26-4.36 1.16-7.68-.08-2.33-.57-4.88-1.16-7.38 3.98-1.3 8.63-1.99 14.3-1.57 12.22.9 14.64 5.73 14.18 7.76-.46 2.03-3.02 3.14-3.88 3.68-.86.54-1.13.73-.99 1.13.18.58.87.55 2.13.43 1.74-.17 11.09-4.49 11.47-14.68.49-12.87-11.82-27.18-33.66-27.04zm-74.14 60.1c-3.64 7.83-8.22 12.03-10.01 11.6-.885-.21-2.48-3.22-1.05-12.31.86-5.47 3.2-13.34 6.16-21.52l.53-1.36c2.96-7.66 6.62-16.04 9.26-21.86.45-.83.78-1.48 1.12-2.14 3.03 18.65-1.97 38.24-5.99 47.59zm32.53-25.77c-.88-3.55-1.96-7.74-.93-11.87 0 0 .43-2.34 2.36-7.02 1.24 2.08 1.96 4.14 2.2 5.86.53 3.64-.03 6.59-1.41 11.13-.58.36-1.4 1.03-2.22 1.9zm28.08 6.14c-.26-1.78.02-3.48.53-5.56.23-.92.76-2.3 1.82-3.9.45 1.68.7 3.27.68 4.74-.01 2.68-.25 4.54-.51 5.92-.42.23-.75.37-.97.42-.48-.4-.99-1.6-1.55-1.62z" fill="#FFF"/></svg>