<svg xmlns="http://www.w3.org/2000/svg" viewBox="0 0 256 256"><defs><linearGradient id="a" x1="0" y1="0" x2="256" y2="256" gradientUnits="userSpaceOnUse"><stop offset="0" stop-color="#97D9F6"/><stop offset="1" stop-color="#0F80CC"/></linearGradient></defs><rect width="256" height="256" rx="20" fill="url(#a)"/><path d="M147 40c-20 0-37 10-47 30-15 30-10 75 5 115 8 20 18 38 30 50 0 0 0 0 0 0 5-20 7-42 7-65 0-45-10-80-25-100 8-18 18-28 30-30zm-42 38c-12 22-8 65 7 105 8 20 18 38 28 48-2-25-3-50-3-73 0-30 3-55 8-75-12-3-28-5-40-5z" fill="#fff" opacity="0.9"/></svg>